<svg xmlns="http://www.w3.org/2000/svg" viewBox="0 0 416.74 168.45"><defs><style>.cls-1{fill:#c90c0f;}.cls-2{fill:#878787;}</style></defs><title>Logotipo</title><g id="Camada_2" data-name="Camada 2"><g id="Camada_1-2" data-name="Camada 1"><circle class="cls-1" cx="151.02" cy="12.21" r="11.23"/><path class="cls-2" d="M24.65,122.61a12.66,12.66,0,0,0-4.29-3.91,11.33,11.33,0,0,0-5.4-1.26A10.88,10.88,0,0,0,6.82,121a11.7,11.7,0,0,0-3.38,8.38,12.21,12.21,0,0,0,3.36,8.72A10.83,10.83,0,0,0,15,141.61a11.55,11.55,0,0,0,5.35-1.23,11.83,11.83,0,0,0,4.15-3.68h3.33a14.5,14.5,0,0,1-5.25,5.63,14.08,14.08,0,0,1-7.39,2A14.06,14.06,0,0,1,4.67,140,14.69,14.69,0,0,1,.46,129.31a14.37,14.37,0,0,1,1.14-5.68,15,15,0,0,1,3.33-4.84A13.83,13.83,0,0,1,15,114.66a14.44,14.44,0,0,1,7.65,2.08A14.62,14.62,0,0,1,28,122.61Z"/><path class="cls-2" d="M56.22,133a11.22,11.22,0,0,1,3.25-8.1,10.33,10.33,0,0,1,7.7-3.37,11.28,11.28,0,0,1,11.28,11.2A11.57,11.57,0,0,1,75.22,141a10.42,10.42,0,0,1-7.84,3.4A10.6,10.6,0,0,1,59.46,141,11.08,11.08,0,0,1,56.22,133Zm2.9,0a8.76,8.76,0,0,0,2.37,6.24,7.75,7.75,0,0,0,5.89,2.52,7.65,7.65,0,0,0,5.82-2.52,8.83,8.83,0,0,0,2.35-6.28,8.63,8.63,0,0,0-2.38-6.27,8,8,0,0,0-6-2.46,7.45,7.45,0,0,0-5.65,2.53A8.77,8.77,0,0,0,59.12,133Z"/><path class="cls-2" d="M107.45,122.2h2.69v2.45a8,8,0,0,1,2.94-2.17,10.62,10.62,0,0,1,8,.17,7,7,0,0,1,2.93,2.53,7.93,7.93,0,0,1,1.07,2.71,24,24,0,0,1,.32,4.59v11.27h-2.72V131.68q0-3.81-1.46-5.54t-4.67-1.72a7,7,0,0,0-3.3.75,5.54,5.54,0,0,0-2.24,2.16,6.31,6.31,0,0,0-.72,2,26.44,26.44,0,0,0-.2,3.93v10.48h-2.69Z"/><path class="cls-2" d="M154.22,137h2.84v.08a4.85,4.85,0,0,0,1.16,3.34,3.63,3.63,0,0,0,2.85,1.32,3.79,3.79,0,0,0,2.71-1,3.4,3.4,0,0,0,1.07-2.57,3.52,3.52,0,0,0-.85-2.48,7.75,7.75,0,0,0-3.08-1.76q-3.58-1.27-4.68-2.61a5.39,5.39,0,0,1-1.1-3.56,5.75,5.75,0,0,1,1.83-4.3,6.18,6.18,0,0,1,4.44-1.76,6.05,6.05,0,0,1,4.38,1.57,6.16,6.16,0,0,1,1.75,4.37h-3a3.49,3.49,0,0,0-1-2.37,3.28,3.28,0,0,0-2.38-.84,3,3,0,0,0-2.25.91,3.08,3.08,0,0,0-.9,2.26,3.17,3.17,0,0,0,.37,1.61,3.44,3.44,0,0,0,1.23,1.19,9.86,9.86,0,0,0,2.28.94c1,.3,1.67.52,2,.67a6.38,6.38,0,0,1,3,2.29,6.45,6.45,0,0,1,.95,3.64,6,6,0,0,1-1.94,4.6,6.87,6.87,0,0,1-4.92,1.83,6.33,6.33,0,0,1-4.87-2A7.92,7.92,0,0,1,154.22,137Z"/><path class="cls-2" d="M196.87,122.2h2.73v11.44c0,2.94.47,5,1.43,6.24s2.52,1.83,4.7,1.83A6.75,6.75,0,0,0,209,141a5.86,5.86,0,0,0,2.27-2.18,6.22,6.22,0,0,0,.7-2,23.9,23.9,0,0,0,.22-4V122.2H215v21.55h-2.76v-2.34a7.73,7.73,0,0,1-2.8,2.22,9.32,9.32,0,0,1-3.74.69q-4.67,0-6.72-2.52c-1.37-1.68-2.06-4.46-2.06-8.36Z"/><path class="cls-2" d="M245.13,143.75V115.23h2.76v28.52Z"/><path class="cls-2" d="M280,143.75V125h-4.1V122.2H280v-7h2.76v7h4.09V125h-4.09v18.77Z"/><path class="cls-2" d="M317.61,119.68h-2.77v-4.45h2.77Zm-2.77,24.07V122.2h2.77v21.55Z"/><path class="cls-2" d="M347.82,122.2h2.68v2.45a8,8,0,0,1,2.95-2.17,10.62,10.62,0,0,1,8.05.17,7,7,0,0,1,2.93,2.53,7.93,7.93,0,0,1,1.07,2.71,24.84,24.84,0,0,1,.32,4.59v11.27H363.1V131.68q0-3.81-1.46-5.54T357,124.42a7,7,0,0,0-3.3.75,5.63,5.63,0,0,0-2.25,2.16,6.55,6.55,0,0,0-.71,2,26.05,26.05,0,0,0-.21,3.93v10.48h-2.68Z"/><path class="cls-2" d="M399.64,145.51a5.42,5.42,0,0,0,2.28,2.93,7.23,7.23,0,0,0,4,1.05,7.63,7.63,0,0,0,5.91-2.45,9.38,9.38,0,0,0,2.22-6.55v-.56a11,11,0,0,1-3.57,3.22,9.1,9.1,0,0,1-4.4,1.08A10.88,10.88,0,0,1,398,141a11.73,11.73,0,0,1,0-16.08,11.37,11.37,0,0,1,12.56-2.25,9.74,9.74,0,0,1,3.52,3.06V122.2h2.7v18q0,5.64-2.83,8.82a10,10,0,0,1-7.81,3.17,10.76,10.76,0,0,1-6.28-1.82,8.11,8.11,0,0,1-3.39-4.84Zm-1.92-12.71a8.84,8.84,0,0,0,2.4,6.32,7.66,7.66,0,0,0,5.79,2.55,7.57,7.57,0,0,0,5.64-2.56,8.39,8.39,0,0,0,2.45-6,8.93,8.93,0,0,0-2.41-6.29,7.52,7.52,0,0,0-5.68-2.6,7.79,7.79,0,0,0-5.78,2.48A8.43,8.43,0,0,0,397.72,132.8Z"/><path class="cls-1" d="M67.07,6.83V28.59h-4q-1.1-10.21-5-13.87-4-3.26-15.26-3.12H29.66c-2,0-3.34.22-3.95.67s-1,1.92-.9,4.17V51.28H43.2q8.17,0,10.29-2.72a7.78,7.78,0,0,0,1.87-3.86,12.13,12.13,0,0,0,.51-2.59c.09-.8.17-1.75.26-2.86h4v29.2h-4q-.39-6.57-2.64-9.29A7.93,7.93,0,0,0,50,57a30.17,30.17,0,0,0-6.75-.6H24.81V88.29q-.27,5.37,1.93,6.77,2.37,1.45,12,1.92v3.84H0V97q8.42-.47,10.34-1.93,1.62-1.39,1.48-6.78V19.38c.09-3.72-.4-6-1.48-6.91Q8.42,11.08,0,10.67V6.83Z"/><path class="cls-1" d="M101.91,43.46q11.72-11.08,17.37-10.83,3.8.13,5.53,2a8.06,8.06,0,0,1,1.41,4.55,8.43,8.43,0,0,1-1.67,5.28,5.49,5.49,0,0,1-4.37,2.31,7.26,7.26,0,0,1-2.64-.65q-5.4-2.93-8.17-2.93-2.39,0-4.69,3a11.23,11.23,0,0,0-1.87,4.18,22.17,22.17,0,0,0-.9,6.85V89.08c-.09,3.27.56,5.31,1.93,6.1s4.94,1.49,10.56,1.8v3.84H79.77V97q6.67-.47,8.41-1.8c1-.79,1.5-2.83,1.41-6.1V46.23c0-2.48-.26-4.08-.77-4.78a5.25,5.25,0,0,0-3.4-1.33l-5-.73V36l19.91-3.37Z"/><path class="cls-1" d="M159,32.63l1,.8V89.08c-.09,3.27.39,5.31,1.42,6.11s4,1.48,8.43,1.79v3.84h-32V97c4.53-.31,7.38-.91,8.53-1.8.95-.79,1.37-2.83,1.29-6.11V46.19c0-2.49-.26-4.08-.77-4.79a5.25,5.25,0,0,0-3.4-1.33l-5.17-.73V36Z"/><path class="cls-1" d="M197.22,65.13a45.16,45.16,0,0,0,3.6,20.57,17.4,17.4,0,0,0,6,7q3.66,2.85,9.7,2.85c5.19,0,9.23-1.43,12.15-4.31a31.15,31.15,0,0,0,6.94-10.08l4,2.18a28.65,28.65,0,0,1-8.54,13.42q-6.24,5.22-17.15,5.69-30.9-1-30.37-34.43,0-15.58,7.51-25.53,7.51-9.75,22.74-9.89,9.1,0,14.51,3a20.07,20.07,0,0,1,8,7.63,22.15,22.15,0,0,1,3.41,9A58.76,58.76,0,0,1,240.4,60c0,2.1-.49,3.46-1.48,4.09a6.46,6.46,0,0,1-3.78,1.07Zm25-5.16c1.84,0,3.08-.47,3.73-1.4a5,5,0,0,0,.77-3c0-1.46-.09-3.23-.26-5.31a24.47,24.47,0,0,0-1.86-6,12.28,12.28,0,0,0-4.06-5.05,13.71,13.71,0,0,0-7.52-1.86c-3.44,0-6.12.87-8.05,2.59a18.83,18.83,0,0,0-4.88,6.51q-2.91,8.3-2.77,13.47Z"/><path class="cls-1" d="M320.62,89.07q-.14,4.92,1.47,6.11t8.39,1.8v3.84H298.37V97q6.9-.47,8.57-1.8,1.49-1.19,1.36-6.11V57q-.14-17.16-13.85-17a17.28,17.28,0,0,0-9.28,2.86,18.85,18.85,0,0,0-6.44,6.92,15.86,15.86,0,0,0-1.29,7.51V89.07q-.13,4.92,1.42,6.11c1.15.89,4,1.49,8.44,1.8v3.84h-32V97q6.79-.47,8.53-1.8,1.41-1.19,1.29-6.11V46.17c0-2.48-.26-4.08-.77-4.78a5.25,5.25,0,0,0-3.4-1.33l-5-.72V36l19.52-3.35,1.85,10.29a108,108,0,0,1,11.46-7.19,26.55,26.55,0,0,1,12.48-3.1q19.11.27,19.37,21.59Z"/><path class="cls-1" d="M394.59,100.82l-1-.92V93.26q-10.14,9.09-20.41,9.22-13.09-.14-20.1-9.42-7.38-9-7.38-24.14.12-17.85,9.11-26.93,8.3-9.23,24.27-9.36,9.12.13,14.64,3.25V13.59c0-2.51-.26-4.17-.77-5a4.76,4.76,0,0,0-3.47-1.26l-5-.53V3.45L405.12,0l.89.86V89.08q-.12,4.9,1.48,6.11c1.11.88,3.92,1.48,8.41,1.79v3.84Zm-.9-47A17.55,17.55,0,0,0,392.47,46a13.6,13.6,0,0,0-5.27-6.57,16.56,16.56,0,0,0-8.28-2q-10,.14-14.72,8.31t-4.88,21.58q0,11.82,4.62,19.73a14.87,14.87,0,0,0,13.56,8.17,17.68,17.68,0,0,0,9.19-2.33,13.11,13.11,0,0,0,6-7.44,27.53,27.53,0,0,0,1-7.63Z"/><polygon class="cls-2" points="416.71 165.37 0.04 165.37 0.04 165.37 416.71 165.37 416.71 165.37"/><polygon class="cls-2" points="416.71 168.45 0.04 168.45 0.04 162.29 416.71 162.29 416.71 168.45 416.71 168.45"/></g></g></svg>